<svg xmlns="http://www.w3.org/2000/svg" viewBox="0 0 164.99 65.2"><defs><style>.cls-1{fill:none;stroke:#fff;stroke-miterlimit:10;stroke-width:2px;}.cls-2{fill:#fff;}</style></defs><g id="Layer_2" data-name="Layer 2"><g id="Layer_1-2" data-name="Layer 1"><path class="cls-1" d="M0,39l16,0V14.24l17.44-13,7.61,5.39c-.11-1.27-.21-2.54-.32-3.81h4.76v7.29l5.7,4.13v25h20v-7l-3.49-.64-3.17-2.53-1-2.54,1.58-2.22,1-.63-1.27-1.59-.64-2.53,2.54-2.22L69,16.77c-.21-.63-.42-1.27-.64-1.9L69,13l2.22-1,1.27-.32,1,.32L75,13l.64,1.9L75,16.77l1.91.95,2.21,2.22-.63,2.54-1.11,1.11-.16.16c.43.31.85.63,1.27.95l1.59,2.54c-.43.84-.85,1.69-1.27,2.53l-2.86,1.9-2.85.64v7h7.29L164.26,39"/><text/><path class="cls-2" d="M3.36,41.25v9.69h11.2V41.25h3V64.42h-3V53.56H3.36V64.42h-3V41.25Z"/><path class="cls-2" d="M44.9,52.51c.06,8-4.75,12.24-10.66,12.29-6.12,0-10.45-4.66-10.51-11.67-.06-7.36,4.47-12.21,10.66-12.26S44.84,45.63,44.9,52.51Zm-18,.52c0,4.95,2.75,9.36,7.46,9.32s7.39-4.42,7.35-9.68c0-4.61-2.49-9.4-7.47-9.36S26.88,48,26.93,53Z"/><path class="cls-2" d="M50.53,41.25h3V61.91h9.9v2.51H50.53Z"/><path class="cls-2" d="M73.23,41.83V65h-3V41.83Z"/><path class="cls-2" d="M80.2,42.14a43.54,43.54,0,0,1,6.36-.48c4.3,0,7.36,1,9.38,2.89s3.27,4.57,3.27,8.32a12.26,12.26,0,0,1-3.33,9C93.71,64,90.14,65.2,85.63,65.2a48.94,48.94,0,0,1-5.43-.27Zm3,20.49a19.93,19.93,0,0,0,3,.17c6.39,0,9.86-3.58,9.86-9.83C96.12,47.5,93,44,86.7,44a17.13,17.13,0,0,0-3.51.31Z"/><path class="cls-2" d="M108.1,57.71,105.7,65h-3.1l7.87-23.17h3.61L122,65h-3.2l-2.47-7.29Zm7.6-2.34-2.27-6.66c-.52-1.52-.86-2.89-1.2-4.23h-.07c-.34,1.37-.72,2.78-1.17,4.19l-2.27,6.7Z"/><path class="cls-2" d="M126.72,63.25l12.85-18.8v-.11H127.82V41.83h15.64v1.82L130.67,62.39v.1h13V65H126.72Z"/><path class="cls-2" d="M164,54.14h-9v8.35h10V65H152V41.83h12.51v2.51H155v7.32h9Z"/></g></g></svg>