<svg xmlns="http://www.w3.org/2000/svg" viewBox="0 0 110.21 43.35"><defs><style>.cls-1{fill:none;stroke:#fff;stroke-miterlimit:10;}.cls-2{fill:#fff;}</style></defs><g id="Layer_2" data-name="Layer 2"><g id="Layer_1-2" data-name="Layer 1"><path class="cls-1" d="M0,25.84l10.7,0V9.3L22.35.62l5.08,3.6-.21-2.54H30.4V6.55L34.21,9.3V26H47.55V21.37L45.22,21,43.1,19.26l-.63-1.7,1.06-1.48.63-.42-.84-1.06-.43-1.7,1.7-1.48L46.07,11l-.42-1.27.42-1.28,1.48-.63.85-.21.63.21,1.06.63.43,1.28L50.09,11l1.27.63,1.49,1.48c-.14.57-.29,1.13-.43,1.7l-.74.74-.1.11.84.63L53.48,18l-.84,1.7L50.73,21l-1.91.42V26h4.87l56-.19"/><path class="cls-2" d="M2.24,27.35v6.47H9.73V27.35h2V42.82h-2V35.57H2.24v7.25h-2V27.35Z"/><path class="cls-2" d="M30,34.86c0,5.33-3.17,8.18-7.12,8.21s-7-3.11-7-7.79c0-4.91,3-8.15,7.12-8.19S30,30.27,30,34.86Zm-12,.36c0,3.3,1.84,6.25,5,6.22s4.94-2.95,4.91-6.47c0-3.07-1.66-6.27-5-6.25S18,31.82,18,35.22Z"/><path class="cls-2" d="M33.75,27.35h2V41.14h6.61v1.68H33.75Z"/><path class="cls-2" d="M48.92,27.74V43.21h-2V27.74Z"/><path class="cls-2" d="M53.57,27.94a29.25,29.25,0,0,1,4.25-.32c2.87,0,4.91.67,6.27,1.93a7.11,7.11,0,0,1,2.18,5.56,8.16,8.16,0,0,1-2.23,6c-1.44,1.45-3.83,2.23-6.84,2.23a31,31,0,0,1-3.63-.19Zm2,13.69a12.94,12.94,0,0,0,2,.11c4.27,0,6.59-2.39,6.59-6.57,0-3.65-2-6-6.27-6a11.82,11.82,0,0,0-2.34.2Z"/><path class="cls-2" d="M72.21,38.34,70.6,43.21H68.54l5.25-15.47h2.42l5.28,15.47H79.35L77.7,38.34Zm5.07-1.56-1.51-4.45c-.35-1-.57-1.93-.8-2.83h0c-.23.92-.48,1.86-.78,2.81l-1.52,4.47Z"/><path class="cls-2" d="M84.65,42l8.58-12.56v-.07H85.38V27.74H95.83V29L87.29,41.47v.06h8.65v1.68H84.65Z"/><path class="cls-2" d="M109.52,36h-6v5.57h6.7v1.68h-8.7V27.74h8.36v1.67h-6.36V34.3h6Z"/></g></g></svg>