<svg xmlns="http://www.w3.org/2000/svg" viewBox="0 0 110.21 43.97"><defs><style>.cls-1{fill:none;stroke:#000;stroke-miterlimit:10;stroke-width:2px;}.cls-2{fill:#c052c4;}</style></defs><g id="Layer_2" data-name="Layer 2"><g id="Layer_1-2" data-name="Layer 1"><path class="cls-1" d="M0,26.46l10.7,0V9.92L22.35,1.24l5.08,3.6L27.22,2.3H30.4V7.17l3.81,2.75V26.65H47.55V22l-2.33-.42-2.11-1.7c-.22-.56-.43-1.13-.64-1.69l1.06-1.48.63-.43-.84-1.06-.43-1.69L44.59,12l1.48-.43-.42-1.27.42-1.27,1.48-.63.85-.21.64.21,1.05.63.43,1.27-.43,1.27,1.28.64,1.48,1.48c-.14.57-.28,1.13-.43,1.7l-.74.74-.1.1.84.64c.36.56.71,1.13,1.06,1.69l-.84,1.7-1.91,1.27L48.82,22v4.66h4.87l56-.19"/><text/><path class="cls-2" d="M2.24,28v6.47H9.73V28h2V43.44h-2V36.18H2.24v7.26h-2V28Z"/><path class="cls-2" d="M30,35.48c0,5.33-3.17,8.18-7.12,8.21s-7-3.11-7-7.79c0-4.91,3-8.15,7.12-8.19S30,30.89,30,35.48Zm-12,.35c0,3.31,1.84,6.26,5,6.23s4.94-3,4.91-6.47c0-3.07-1.66-6.27-5-6.25S18,32.44,18,35.83Z"/><path class="cls-2" d="M33.75,28h2V41.76h6.61v1.68H33.75Z"/><path class="cls-2" d="M48.92,28.35V43.83h-2V28.35Z"/><path class="cls-2" d="M53.57,28.56a29.25,29.25,0,0,1,4.25-.32c2.87,0,4.92.67,6.27,1.93a7.1,7.1,0,0,1,2.18,5.55,8.17,8.17,0,0,1-2.23,6C62.6,43.19,60.21,44,57.2,44a31.11,31.11,0,0,1-3.63-.19Zm2,13.68a11.69,11.69,0,0,0,2,.12c4.27,0,6.59-2.39,6.59-6.57,0-3.65-2-6-6.27-6a11.67,11.67,0,0,0-2.34.21Z"/><path class="cls-2" d="M72.21,39,70.6,43.83H68.54L73.8,28.35h2.41l5.28,15.48H79.35L77.7,39Zm5.08-1.56L75.77,33c-.34-1-.57-1.93-.8-2.83h0c-.23.92-.48,1.86-.78,2.8L72.62,37.4Z"/><path class="cls-2" d="M84.65,42.66,93.23,30.1V30H85.38V28.35H95.83v1.22L87.29,42.08v.07h8.65v1.68H84.65Z"/><path class="cls-2" d="M109.52,36.57h-6v5.58h6.7v1.68h-8.7V28.35h8.36V30h-6.36v4.89h6Z"/></g></g></svg>